<svg xmlns:xlink="http://www.w3.org/1999/xlink" xmlns="http://www.w3.org/2000/svg" version="1.1" viewBox="0 0 1024 1024" height="1024px" width="1024px">
    <title>头像-男五</title>
    <defs>
        <circle r="512" cy="512" cx="512" id="path-1"></circle>
        <rect height="120" width="111" y="0" x="0" id="path-3"></rect>
        <ellipse ry="199" rx="142" cy="199" cx="142" id="path-5"></ellipse>
    </defs>
    <g fill-rule="evenodd" fill="none" stroke-width="1" stroke="none" id="头像-男五">
        <rect height="1024" width="1024" y="0" x="0" fill="#FFFFFF"></rect>
        <g transform="translate(0.000000, -0.000000)" id="蒙版">
            <mask fill="white" id="mask-2">
                <use xlink:href="#path-1"></use>
            </mask>
            <use xlink:href="#path-1" transform="translate(512.000000, 512.000000) rotate(90.000000) translate(-512.000000, -512.000000)" fill="#9BA9DE"></use>
            <g mask="url(#mask-2)" id="椭圆形">
                <g transform="translate(457.000000, 618.000000)">
                    <mask fill="white" id="mask-4">
                        <use xlink:href="#path-3"></use>
                    </mask>
                    <use xlink:href="#path-3" fill-rule="evenodd" fill="#FFCACA" stroke="none" id="蒙版"></use>
                    <ellipse ry="23.5" rx="47" cy="10.5" cx="57" mask="url(#mask-4)" opacity="0.5191476" style="mix-blend-mode: multiply;" fill-rule="evenodd" fill="#FFB0B0" stroke="none" id="椭圆形"></ellipse>
                </g>
            </g>
            <path mask="url(#mask-2)" fill="#1C3387" d="M512.5,727 C536.455563,727 557.312866,719.375103 568.127085,708.117215 C613.582944,716.162757 676.17011,732.151991 755.883906,756.083185 C795.727505,768.044791 824.004097,803.423998 826.889488,844.924202 L841.048723,1048.57467 L184,1054.57226 L200.318576,844.024235 C203.50047,802.970312 231.522019,768.063863 270.916686,756.080156 C349.731555,732.104974 411.703682,716.101423 456.833065,708.069501 C467.630274,719.3543 488.51178,727 512.5,727 Z"></path>
            <line mask="url(#mask-2)" stroke-linejoin="round" stroke-linecap="round" opacity="0.129434495" stroke-width="7" stroke="#000000" id="路径-6" y2="1040.82827" x2="281.5" y1="902.837686" x1="309.040549"></line>
            <line transform="translate(737.500000, 985.746777) scale(-1, 1) translate(-737.500000, -985.746777)" mask="url(#mask-2)" stroke-linejoin="round" stroke-linecap="round" opacity="0.129434495" stroke-width="7" stroke="#000000" id="路径-6备份" y2="1054.64645" x2="723.5" y1="916.655868" x1="751.040549"></line>
        </g>
        <g fill-rule="nonzero" transform="translate(574.000000, 861.000000)" id="笑脸">
            <rect height="104" width="104" y="0" x="0" opacity="0" fill="#000000" id="矩形"></rect>
            <path fill="#2C48AE" id="形状" d="M24.9233076,48.9384785 C29.51215,48.9384785 33.2341345,45.2210804 33.2341345,40.6322382 L33.2341345,24.0151709 C33.2341345,19.4263285 29.5121499,15.7066373 24.9233076,15.7066373 C20.3367585,15.7066373 16.6170673,19.4263286 16.6170673,24.0151709 L16.6170673,40.6322382 C16.6170673,45.2233737 20.3344652,48.9384785 24.9233076,48.9384785 L24.9233076,48.9384785 Z M51.9243219,82.172613 C29.8033958,82.172613 10.4710915,72.3000662 0,57.5887101 L0,74.2080706 C10.4733848,88.9125469 29.8033958,98.7873871 51.9243219,98.7873871 C74.0429548,98.7873871 93.375259,88.9125469 103.846351,74.2080706 L103.846351,57.5887101 C93.3775523,72.2977728 74.0452481,82.172613 51.9243219,82.172613 L51.9243219,82.172613 Z M78.9276295,48.9384785 C83.5141786,48.9384785 87.2338698,45.2210804 87.2338698,40.6322382 L87.2338698,24.0151709 C87.2338698,19.4263285 83.5141785,15.7066373 78.9276295,15.7066373 C74.3364939,15.7066373 70.6168026,19.4263286 70.6168026,24.0151709 L70.6168026,40.6322382 C70.6168026,45.2233737 74.336494,48.9384785 78.9276295,48.9384785 L78.9276295,48.9384785 Z"></path>
        </g>
        <g transform="translate(370.000000, 238.000000)" id="椭圆形备份-2">
            <mask fill="white" id="mask-6">
                <use xlink:href="#path-5"></use>
            </mask>
            <use xlink:href="#path-5" fill="#FFCACA" id="蒙版"></use>
            <ellipse ry="25.5" rx="36.5" cy="299.5" cx="247.5" mask="url(#mask-6)" opacity="0.216334752" style="mix-blend-mode: multiply;" fill="#FFAAAA"></ellipse>
        </g>
        <ellipse ry="43" rx="36.5" cy="458" cx="370.5" fill="#FFCACA" id="椭圆形"></ellipse>
        <g stroke-width="4" stroke-linejoin="round" stroke-linecap="round" stroke="#FF9494" transform="translate(345.441289, 445.000000)" id="编组-8">
            <path id="路径-2" d="M30.1994832,5.68434189e-14 C13.5174214,0.53093587 3.45092698,5.41711726 0,14.6585442"></path>
            <path id="路径-19" d="M12.258354,4 C22.6789763,11.4031175 26.3261442,20.5121611 23.1998577,31.3271308"></path>
        </g>
        <ellipse ry="43" rx="36.5" cy="458" cx="655.5" fill="#FFCACA" id="椭圆形备份-3"></ellipse>
        <g stroke-width="4" stroke-linejoin="round" stroke-linecap="round" stroke="#FF9494" transform="translate(664.541031, 460.663565) scale(-1, 1) translate(-664.541031, -460.663565) translate(649.441289, 445.000000)" id="编组-7">
            <path id="路径-2备份" d="M30.1994832,5.68434189e-14 C13.5174214,0.53093587 3.45092698,5.41711726 0,14.6585442"></path>
            <path id="路径-19备份" d="M12.258354,4 C22.6789763,11.4031175 26.3261442,20.5121611 23.1998577,31.3271308"></path>
        </g>
        <path stroke-linejoin="round" stroke-linecap="round" stroke-width="7" stroke="#110D2E" id="路径-4" d="M557.531614,410.066685 C571.923104,402.561697 583.549215,398.809203 592.409948,398.809203 C601.27068,398.809203 612.896792,402.561697 627.288282,410.066685"></path>
        <path stroke-linejoin="round" stroke-linecap="round" stroke-width="7" stroke="#110D2E" id="路径-4备份" d="M422.531614,407.066685 C436.649805,403.314191 448.139268,401.437944 457,401.437944 C465.860732,401.437944 477.623493,403.314191 492.288282,407.066685"></path>
        <circle r="9" cy="445" cx="466" fill="#110D2E" id="椭圆形"></circle>
        <circle r="9" cy="440" cx="578" fill="#110D2E" id="椭圆形备份"></circle>
        <path stroke-linejoin="round" stroke-linecap="round" stroke-width="7" stroke="#FF9494" id="路径-5" d="M522.103395,472 L522.103395,498 C522.103395,505.731986 528.371409,512 536.103395,512 L542.936345,512 L542.936345,512"></path>
        <line stroke-linejoin="round" stroke-linecap="round" stroke-width="7" stroke="#110D2E" id="路径-8" y2="562.5" x2="540.80279" y1="562.5" x1="512"></line>
        <ellipse ry="25.5" rx="36.5" cy="537.5" cx="430.5" opacity="0.216334752" style="mix-blend-mode: multiply;" fill="#FFAAAA" id="椭圆形"></ellipse>
        <path transform="translate(421.852119, 314.224625) rotate(-36.000000) translate(-421.852119, -314.224625)" fill="#110D2E" id="路径" d="M541.852119,360.108844 C541.852119,293.834674 488.126289,240.108844 421.852119,240.108844 C355.577949,240.108844 301.852119,293.834674 301.852119,360.108844 C359.616644,378.929886 402.345582,388.340407 430.038934,388.340407 C455.678916,388.340407 492.949977,378.929886 541.852119,360.108844 Z"></path>
        <path transform="translate(592.589331, 296.356506) rotate(-315.000000) translate(-592.589331, -296.356506)" fill="#110D2E" id="路径备份" d="M725.589331,345.849326 C725.589331,272.395455 666.043203,212.849326 592.589331,212.849326 C519.13546,212.849326 459.589331,272.395455 459.589331,345.849326 C517.207795,368.525566 561.05984,379.863686 591.145465,379.863686 C620.170951,379.863686 664.985573,368.525566 725.589331,345.849326 Z"></path>
    </g>
</svg>